<?xml version="1.0" standalone="no"?>
<!DOCTYPE svg PUBLIC "-//W3C//DTD SVG 20010904//EN"
 "http://www.w3.org/TR/2001/REC-SVG-20010904/DTD/svg10.dtd">
<svg version="1.0" xmlns="http://www.w3.org/2000/svg"
 width="410.000000pt" height="410.000000pt" viewBox="0 0 410.000000 410.000000"
 preserveAspectRatio="xMidYMid meet">
<metadata>
Created by potrace 1.11, written by Peter Selinger 2001-2013
</metadata>
<g transform="translate(0.000000,410.000000) scale(0.100000,-0.100000)"
fill="#000000" stroke="none">
<path d="M1835 3849 c-415 -59 -766 -223 -1053 -493 -315 -298 -520 -704 -570
-1131 -17 -148 -6 -421 23 -575 91 -474 387 -912 796 -1182 138 -91 276 -160
404 -203 148 -49 171 -54 375 -90 60 -11 361 -13 445 -4 709 79 1319 571 1549
1250 18 53 63 230 70 279 3 19 9 49 12 65 3 17 7 113 9 215 3 195 -8 305 -46
455 -11 44 -22 87 -24 95 -17 81 -107 293 -167 395 -44 76 -140 214 -185 267
-57 68 -210 217 -278 270 -244 193 -539 323 -845 373 -25 4 -54 9 -65 12 -39
9 -391 10 -450 2z m471 -110 c143 -22 250 -49 364 -93 499 -193 878 -591 1044
-1096 19 -58 36 -119 39 -135 3 -17 13 -68 22 -115 25 -128 28 -396 5 -540
-59 -377 -209 -685 -470 -963 -212 -227 -549 -418 -865 -492 -58 -13 -90 -18
-205 -35 -58 -8 -377 -6 -420 3 -14 3 -38 8 -55 11 -302 48 -611 193 -858 403
-253 214 -462 546 -547 868 -22 84 -25 102 -45 230 -19 122 -11 406 14 542
129 690 661 1240 1349 1392 190 43 432 50 628 20z"/>
<path d="M2896 3033 c-1 -1 -37 -8 -79 -14 -81 -12 -99 -23 -44 -27 17 -1 38
-10 45 -19 14 -20 16 -95 2 -178 -5 -33 -12 -82 -16 -110 -3 -27 -8 -57 -9
-67 -2 -9 -6 -38 -10 -65 -13 -92 -13 -92 -72 8 -31 52 -87 151 -125 221 -76
139 -78 153 -18 178 17 7 29 14 27 16 -2 2 -66 -8 -142 -21 -76 -14 -144 -25
-149 -26 -6 -1 7 -5 28 -10 22 -5 46 -15 54 -22 30 -24 90 -128 87 -150 -2
-12 -6 -42 -9 -67 -3 -25 -8 -56 -11 -70 -3 -14 -7 -41 -9 -60 -3 -19 -10 -59
-16 -89 -5 -29 -10 -56 -10 -59 0 -3 -12 14 -27 39 -16 25 -33 54 -40 65 -82
133 -193 332 -193 346 0 10 15 28 33 39 l32 21 -40 -6 c-37 -6 -61 -10 -125
-22 -14 -2 -41 -7 -60 -10 -43 -7 -48 -12 -24 -20 10 -3 29 -9 40 -14 18 -7
139 -192 197 -302 52 -98 181 -298 188 -291 8 8 52 217 63 303 3 25 9 59 12
75 3 17 7 39 9 50 2 11 4 29 4 40 1 17 3 17 14 5 8 -8 65 -105 127 -215 120
-214 118 -210 124 -204 5 5 34 143 40 191 4 29 19 124 31 198 2 14 9 54 14 90
6 36 13 83 17 105 10 66 35 116 68 136 l31 19 -28 -2 c-15 -1 -29 -4 -31 -5z"/>
<path d="M1885 2849 c-22 -4 -58 -11 -80 -14 -45 -8 -65 -20 -65 -43 0 -25
-123 -512 -129 -512 -3 0 -75 104 -159 230 -89 133 -160 230 -169 230 -8 0
-56 -7 -106 -17 l-91 -16 47 -14 c33 -10 51 -21 61 -41 18 -36 71 -343 80
-467 5 -58 -17 -121 -44 -130 -10 -3 -23 -12 -29 -19 -9 -10 13 -9 96 6 125
22 169 36 113 37 -45 1 -76 23 -94 65 -11 26 -57 267 -82 431 -2 17 -7 44 -10
60 -4 17 -4 28 -2 25 3 -3 88 -129 188 -280 l184 -275 12 55 c8 30 15 64 18
75 8 38 19 80 52 208 19 71 36 140 39 155 14 73 43 165 48 152 3 -8 13 -60 23
-115 9 -55 21 -122 25 -150 5 -27 12 -68 15 -90 3 -22 7 -46 9 -53 3 -7 7 -39
11 -72 7 -71 -6 -98 -61 -124 -45 -22 -42 -28 10 -16 22 5 58 11 80 14 77 12
199 36 203 41 3 3 -9 5 -27 5 -64 0 -92 35 -106 130 -3 25 -8 52 -10 60 -2 8
-6 29 -9 45 -3 17 -15 86 -27 155 -22 132 -27 209 -15 229 5 7 22 21 40 32 33
20 26 22 -39 8z"/>
<path d="M1335 1690 c-4 -6 -15 -10 -25 -10 -17 0 -45 -32 -36 -41 2 -2 6 -17
9 -34 7 -40 35 -121 58 -167 l19 -37 42 13 c47 13 49 18 30 94 -16 68 3 57 28
-16 12 -37 37 -96 55 -132 18 -36 36 -81 39 -100 4 -19 10 -43 13 -53 4 -17 1
-18 -34 -12 -58 10 -85 7 -105 -12 -25 -23 -23 -49 12 -118 35 -72 36 -77 10
-93 -23 -14 -27 -47 -6 -55 18 -7 62 0 88 14 14 8 18 17 14 32 -4 12 -9 34
-12 50 -4 15 -10 27 -15 27 -5 0 -9 12 -9 26 0 26 0 26 27 9 38 -25 179 -27
215 -3 14 9 28 15 31 12 3 -3 -5 -36 -18 -72 -22 -62 -23 -68 -8 -79 18 -14
67 -20 106 -14 14 2 7 28 -13 46 -27 24 -25 42 9 106 53 101 22 143 -93 125
l-38 -5 6 32 c3 18 7 41 9 52 2 11 20 54 39 95 20 41 44 98 53 125 23 63 40
83 31 35 -21 -112 -22 -106 23 -118 39 -9 43 -8 58 15 26 39 70 175 69 211 -1
30 -6 35 -39 47 -35 12 -39 11 -52 -8 -8 -12 -15 -24 -15 -28 0 -4 -7 -23 -15
-43 -14 -34 -17 -35 -38 -22 -41 26 -389 24 -420 -2 -16 -14 -19 -11 -43 46
-26 59 -47 81 -59 62z m415 -114 c14 -2 28 -5 32 -5 12 -1 2 -83 -15 -123 -19
-44 -35 -50 -30 -10 6 40 -43 92 -87 92 -18 0 -42 -7 -52 -17 -20 -18 -24 -64
-7 -95 13 -25 9 -29 -19 -21 -35 9 -85 127 -64 148 4 4 7 12 7 18 0 6 18 13
40 15 22 1 44 4 49 5 12 4 116 -1 146 -7z"/>
<path d="M2132 1686 c-57 -20 -59 -32 -20 -156 21 -64 43 -108 62 -121 10 -8
68 10 77 24 4 5 0 32 -7 61 -16 61 -16 56 -5 56 5 0 12 -12 16 -27 4 -16 28
-75 55 -133 26 -58 51 -126 55 -152 l6 -47 -58 5 c-41 4 -64 1 -78 -9 -28 -21
-24 -77 9 -120 35 -45 33 -76 -6 -110 -28 -25 -30 -29 -16 -44 15 -14 21 -13
75 4 63 22 63 20 40 103 -8 30 -13 57 -11 59 2 2 20 -3 41 -11 42 -17 141 -16
187 2 16 6 31 8 33 6 3 -3 -4 -30 -16 -61 -12 -31 -21 -60 -21 -65 0 -16 91
-50 116 -44 37 9 37 18 -2 58 l-35 36 30 54 c33 61 38 81 28 113 -7 20 -59 47
-70 37 -7 -8 -69 -14 -78 -9 -13 8 19 106 59 185 22 41 47 99 56 128 20 58 30
69 21 20 -19 -100 -19 -104 21 -116 21 -6 41 -9 46 -6 23 15 87 197 88 251 0
6 -20 18 -44 26 l-44 15 -27 -63 c-27 -62 -28 -63 -49 -50 -12 8 -40 14 -62
14 -21 -1 -86 -1 -144 -1 -152 2 -206 -2 -223 -16 -12 -10 -17 -4 -32 35 -29
76 -35 82 -73 69z m430 -109 c25 -4 30 -12 30 -49 0 -46 -38 -125 -63 -131
-16 -4 -19 -2 -14 11 24 55 11 111 -29 130 -29 13 -82 -8 -90 -36 -15 -45 -14
-65 1 -88 18 -28 4 -32 -26 -6 -25 20 -64 119 -50 128 5 3 8 13 7 22 -2 13 7
17 47 20 28 1 53 4 57 5 10 3 107 -2 130 -6z"/>
</g>
</svg>
